<?xml version="1.0" standalone="no"?>
<!DOCTYPE svg PUBLIC "-//W3C//DTD SVG 20010904//EN"
 "http://www.w3.org/TR/2001/REC-SVG-20010904/DTD/svg10.dtd">
<svg version="1.0" xmlns="http://www.w3.org/2000/svg"
 width="500.000000pt" height="500.000000pt" viewBox="0 0 500.000000 500.000000"
 preserveAspectRatio="xMidYMid meet">
<metadata>
Created by potrace 1.14, written by Peter Selinger 2001-2017
</metadata>
<g transform="translate(0.000000,500.000000) scale(0.100000,-0.100000)"
fill="#000000" stroke="none">
<path d="M0 2500 l0 -2500 2500 0 2500 0 0 2500 0 2500 -2500 0 -2500 0 0
-2500z m2585 720 c-7 -11 -99 -60 -112 -60 -4 1 13 12 40 26 26 13 47 26 47
29 0 2 -15 2 -32 0 -29 -4 -30 -4 -8 4 35 13 72 13 65 1z m-98 -16 c-3 -3 -12
-4 -19 -1 -8 3 -5 6 6 6 11 1 17 -2 13 -5z m-77 -18 c0 -2 -7 -7 -16 -10 -8
-3 -12 -2 -9 4 6 10 25 14 25 6z m-50 -31 c-19 -23 -2 -35 51 -35 27 0 49 -4
49 -10 0 -5 -9 -10 -20 -10 -43 0 -260 -129 -340 -202 -48 -44 -100 -112 -100
-130 0 -10 10 -23 23 -28 22 -10 22 -10 -3 -7 -19 1 -26 9 -28 28 -7 59 145
197 325 295 l87 48 -32 8 c-33 9 -41 25 -20 46 17 17 23 15 8 -3z m831 -54
c-6 -10 -30 -36 -54 -57 -24 -22 -45 -43 -45 -49 -1 -15 -53 -23 -103 -15
l-44 7 44 2 c31 1 53 8 70 24 l26 22 -20 -25 -20 -24 25 16 c14 9 24 21 23 27
-3 11 84 91 99 91 5 0 4 -9 -1 -19z m-215 -181 c-52 -55 -56 -67 -23 -73 19
-4 18 -4 -5 -6 -20 -1 -28 4 -28 15 0 17 79 113 94 114 5 0 -12 -22 -38 -50z
m-241 20 c-10 -11 -22 -20 -27 -20 -10 0 24 38 36 39 5 1 1 -8 -9 -19z m-115
5 c0 -2 -10 -9 -22 -15 -22 -11 -22 -10 -4 4 21 17 26 19 26 11z m177 -23
c-10 -10 -15 -21 -12 -24 3 -2 -6 -15 -20 -28 -14 -13 -27 -21 -30 -18 -5 5
63 88 72 88 4 0 -1 -8 -10 -18z m71 -65 c12 -3 11 -4 -3 -3 -17 1 -20 8 -21
44 l-1 42 4 -39 c3 -27 10 -41 21 -44z m-348 53 c-6 -11 -13 -20 -16 -20 -2 0
0 9 6 20 6 11 13 20 16 20 2 0 0 -9 -6 -20z m122 -6 c-28 -20 -28 -41 1 -47
19 -4 18 -4 -5 -6 -20 -1 -28 4 -28 16 0 18 40 66 49 58 2 -3 -5 -12 -17 -21z
m188 22 c0 -2 -8 -10 -17 -17 -16 -13 -17 -12 -4 4 13 16 21 21 21 13z m-285
-32 c-45 -37 -66 -48 -59 -29 4 8 11 15 18 15 6 0 22 9 36 20 36 28 40 24 5
-6z m-240 -104 c-3 -5 -12 -10 -18 -10 -7 0 -6 4 3 10 19 12 23 12 15 0z
m-182 -57 c-7 -2 -19 -2 -25 0 -7 3 -2 5 12 5 14 0 19 -2 13 -5z m-562 -30
c-6 -10 -27 -36 -46 -58 -32 -35 -31 -33 7 18 43 57 57 72 39 40z m1602 -12
c20 -8 23 -14 19 -41 l-5 -33 -13 31 c-24 58 -104 51 -104 -8 0 -26 9 -35 59
-67 84 -52 101 -94 56 -138 -18 -19 -35 -25 -65 -25 -59 0 -80 14 -80 53 l0
32 18 -35 c14 -30 23 -35 55 -38 47 -4 67 11 67 49 0 23 -10 35 -61 69 -70 48
-88 78 -71 115 18 39 74 55 125 36z m-1292 -73 c0 -40 0 -98 -1 -130 -1 -45 2
-58 17 -67 14 -8 6 -10 -37 -10 -30 0 -48 3 -40 6 8 3 18 11 22 17 13 19 9
231 -4 244 -9 9 -6 12 15 12 27 0 27 -1 28 -72z m116 50 c53 -50 12 -139 -64
-137 l-38 1 35 8 c18 5 40 16 47 26 29 39 5 108 -40 117 -17 3 -16 5 7 6 18 0
39 -8 53 -21z m307 -108 c27 -72 56 -135 65 -140 12 -7 2 -9 -34 -9 -37 0 -46
2 -33 9 14 8 14 16 5 45 l-10 35 -63 0 c-61 0 -62 -1 -73 -31 -15 -42 -14 -47
7 -52 9 -3 -3 -5 -27 -6 -42 -1 -43 -1 -22 17 22 18 91 197 91 237 0 19 5 25
23 25 20 0 28 -16 71 -130z m236 65 c0 -63 1 -65 25 -65 26 0 75 40 75 60 0
21 -21 51 -43 60 -21 8 -20 9 6 9 29 1 67 -29 67 -54 0 -17 -21 -65 -29 -65
-3 0 -12 -4 -20 -9 -10 -7 -4 -22 29 -70 23 -34 51 -66 63 -71 19 -7 16 -9
-15 -9 -33 -1 -38 3 -63 47 -34 58 -64 92 -82 92 -22 0 -18 -116 5 -129 13 -8
6 -10 -32 -11 -43 0 -47 2 -32 13 15 11 17 28 14 140 -3 115 -1 127 15 127 14
0 17 -10 17 -65z m342 -62 c-3 -113 -2 -128 14 -140 16 -11 11 -13 -31 -13
-42 0 -46 2 -31 13 15 11 17 28 14 140 -3 121 -2 127 17 127 19 0 20 -6 17
-127z m-1424 -5 c-19 -24 -67 -85 -107 -135 -40 -51 -75 -93 -78 -93 -6 0 -12
-8 112 148 53 67 99 122 102 122 3 0 -10 -19 -29 -42z m290 -363 c-3 -3 -9 2
-12 12 -6 14 -5 15 5 6 7 -7 10 -15 7 -18z m129 -37 c-2 -13 -4 -3 -4 22 0 25
2 35 4 23 2 -13 2 -33 0 -45z m170 0 c-2 -13 -4 -3 -4 22 0 25 2 35 4 23 2
-13 2 -33 0 -45z m1250 0 c-2 -13 -4 -3 -4 22 0 25 2 35 4 23 2 -13 2 -33 0
-45z m-143 -4 c3 -8 2 -12 -4 -9 -6 3 -10 10 -10 16 0 14 7 11 14 -7z"/>
<path d="M3132 3065 c-20 -19 -32 -35 -26 -35 5 0 25 16 44 35 44 45 31 45
-18 0z"/>
<path d="M2192 2592 c-12 -38 -22 -71 -22 -75 0 -4 25 -7 56 -7 31 0 54 4 52
8 -1 4 -14 38 -27 75 -14 37 -27 67 -31 67 -3 0 -16 -31 -28 -68z"/>
</g>
</svg>
